<svg id="instagram" xmlns="http://www.w3.org/2000/svg" width="90" height="90" viewBox="0 0 90 90">
  <path id="Trazado_5" data-name="Trazado 5" d="M225.065,216.033A9.033,9.033,0,1,1,216.033,207,9.032,9.032,0,0,1,225.065,216.033Zm0,0" transform="translate(-171.033 -171.033)" fill="#502c0c"/>
  <path id="Trazado_6" data-name="Trazado 6" d="M178.824,141.722a8.973,8.973,0,0,0-5.143-5.143,14.992,14.992,0,0,0-5.031-.932c-2.858-.13-3.715-.158-10.95-.158s-8.093.027-10.95.158a15,15,0,0,0-5.031.933,8.977,8.977,0,0,0-5.143,5.143,15,15,0,0,0-.932,5.032c-.13,2.857-.158,3.714-.158,10.95s.028,8.092.158,10.95a14.992,14.992,0,0,0,.932,5.031,8.973,8.973,0,0,0,5.143,5.143,14.974,14.974,0,0,0,5.032.933c2.857.13,3.713.158,10.949.158s8.094-.027,10.95-.158a14.974,14.974,0,0,0,5.032-.933,8.973,8.973,0,0,0,5.143-5.143,15.007,15.007,0,0,0,.933-5.031c.13-2.858.158-3.715.158-10.95s-.027-8.093-.158-10.95A14.974,14.974,0,0,0,178.824,141.722Zm-21.124,29.9A13.915,13.915,0,1,1,171.615,157.7,13.915,13.915,0,0,1,157.7,171.618Zm14.465-25.128a3.252,3.252,0,1,1,3.252-3.252A3.252,3.252,0,0,1,172.165,146.49Zm0,0" transform="translate(-112.7 -112.703)" fill="#502c0c"/>
  <path id="Trazado_7" data-name="Trazado 7" d="M45,0A45,45,0,1,0,90,45,45,45,0,0,0,45,0ZM70.684,55.653a18.958,18.958,0,0,1-1.2,6.273,13.212,13.212,0,0,1-7.557,7.557,18.971,18.971,0,0,1-6.272,1.2c-2.756.126-3.636.156-10.653.156s-7.9-.03-10.654-.156a18.971,18.971,0,0,1-6.272-1.2,13.213,13.213,0,0,1-7.557-7.557,18.954,18.954,0,0,1-1.2-6.272C19.19,52.9,19.16,52.018,19.16,45s.03-7.9.156-10.653a18.96,18.96,0,0,1,1.2-6.273,13.221,13.221,0,0,1,7.558-7.557,18.976,18.976,0,0,1,6.273-1.2C37.1,19.19,37.982,19.16,45,19.16s7.9.03,10.653.157a18.98,18.98,0,0,1,6.273,1.2,13.216,13.216,0,0,1,7.557,7.558,18.956,18.956,0,0,1,1.2,6.273c.126,2.756.155,3.636.155,10.653S70.81,52.9,70.684,55.653Zm0,0" fill="#502c0c"/>
</svg>
