<svg id="whatsapp" xmlns="http://www.w3.org/2000/svg" width="90" height="90" viewBox="0 0 90 90">
  <g id="Grupo_57" data-name="Grupo 57">
    <path id="Trazado_8" data-name="Trazado 8" d="M45.011,0h-.023A44.972,44.972,0,0,0,8.567,71.376L2.959,88.093l17.3-5.529A44.992,44.992,0,1,0,45.011,0ZM71.2,63.546C70.11,66.611,65.8,69.154,62.364,69.9c-2.351.5-5.423.9-15.761-3.386C33.379,61.031,24.863,47.593,24.2,46.721c-.636-.872-5.344-7.116-5.344-13.573a14.366,14.366,0,0,1,4.6-10.952,6.538,6.538,0,0,1,4.6-1.614c.557,0,1.058.028,1.508.051,1.322.056,1.986.135,2.858,2.222,1.086,2.616,3.729,9.073,4.044,9.737a2.678,2.678,0,0,1,.191,2.436A7.777,7.777,0,0,1,35.2,37.091c-.664.765-1.294,1.35-1.958,2.171-.608.714-1.294,1.479-.529,2.8a39.942,39.942,0,0,0,7.3,9.073,33.084,33.084,0,0,0,10.552,6.508,2.845,2.845,0,0,0,3.173-.5,54.446,54.446,0,0,0,3.516-4.658,2.511,2.511,0,0,1,3.229-.979c1.215.422,7.644,3.6,8.966,4.258s2.194.979,2.514,1.536S72.281,60.474,71.2,63.546Z" fill="#502c0c"/>
  </g>
</svg>
